<svg width="640" height="420" viewBox="0 0 640 420" fill="none" xmlns="http://www.w3.org/2000/svg">
  <rect width="640" height="420" rx="28" fill="#F5F7FF"/>
  <rect x="58" y="120" width="524" height="180" rx="24" fill="#DDEAFE" stroke="#0F172A" stroke-opacity="0.25" stroke-width="4"/>
  <rect x="86" y="150" width="468" height="120" rx="16" fill="#FFFFFF"/>
  <g fill="#0E7490">
    <rect x="106" y="168" width="50" height="30" rx="8"/>
    <rect x="164" y="168" width="50" height="30" rx="8"/>
    <rect x="222" y="168" width="50" height="30" rx="8"/>
    <rect x="280" y="168" width="50" height="30" rx="8"/>
    <rect x="338" y="168" width="50" height="30" rx="8"/>
    <rect x="396" y="168" width="50" height="30" rx="8"/>
    <rect x="454" y="168" width="80" height="30" rx="8"/>
    <rect x="106" y="208" width="88" height="30" rx="8"/>
    <rect x="202" y="208" width="250" height="30" rx="8"/>
    <rect x="460" y="208" width="74" height="30" rx="8"/>
  </g>
</svg>
